<svg width="18" height="18" viewBox="0 0 18 18" fill="none" xmlns="http://www.w3.org/2000/svg">
<path fill-rule="evenodd" clip-rule="evenodd" d="M0 9C0 13.9706 4.02944 18 9 18C13.9706 18 18 13.9706 18 9C18 4.02944 13.9706 0 9 0C4.02944 0 0 4.02944 0 9ZM16.25 9C16.25 13.0041 13.0041 16.25 9 16.25C4.99594 16.25 1.75 13.0041 1.75 9C1.75 4.99594 4.99594 1.75 9 1.75C13.0041 1.75 16.25 4.99594 16.25 9Z" fill="white"/>
<path fill-rule="evenodd" clip-rule="evenodd" d="M10 9.59116L11.7082 11.2994C12.0973 11.6884 12.0973 12.3192 11.7082 12.7082C11.3192 13.0973 10.6884 13.0973 10.2994 12.7082L8.35735 10.7662C8.13888 10.5827 8 10.3076 8 10V5C8 4.44772 8.44772 4 9 4C9.55228 4 10 4.44772 10 5V9.59116Z" fill="white"/>
</svg>
