<?xml version="1.0" encoding="UTF-8"?>
<svg width="18px" height="18px" viewBox="0 0 18 18" version="1.1" xmlns="http://www.w3.org/2000/svg" xmlns:xlink="http://www.w3.org/1999/xlink">
    <!-- Generator: Sketch 58 (84663) - https://sketch.com -->
    <title>collapse</title>
    <desc>Created with Sketch.</desc>
    <g id="Reader/Dashboardless-Etext" stroke="none" stroke-width="1" fill="none" fill-rule="evenodd">
        <g id="History-No-Bookmarks" transform="translate(-384.000000, -16.000000)" fill="#252525">
            <g id="Drawer" transform="translate(0.000000, -7.000000)">
                <g id="drawer" transform="translate(60.000000, 0.000000)">
                    <g id="toc-mask">
                        <g id="collapse" transform="translate(320.000000, 19.019456)">
                            <path d="M5.69325651,17.1666667 L12.1666667,17.1666667 C12.626904,17.1666667 13,17.5397627 13,18 C13,18.4602373 12.626904,18.8333333 12.1666667,18.8333333 L5.69325651,18.8333333 L8.53242449,21.6798838 C8.83363611,21.9818786 8.83363611,22.471509 8.53242449,22.7735039 C8.23121286,23.0754987 7.74285232,23.0754987 7.44164069,22.7735039 L3.22590872,18.54681 C2.92469709,18.2448152 2.92469709,17.7551848 3.22590872,17.45319 L7.44164069,13.2264961 C7.74285232,12.9245013 8.23121286,12.9245013 8.53242449,13.2264961 C8.83363611,13.528491 8.83363611,14.0181214 8.53242449,14.3201162 L5.69325651,17.1666667 Z" id="icon" transform="translate(8.000000, 18.000000) rotate(135.000000) translate(-8.000000, -18.000000) "></path>
                            <path d="M15.6932565,7.16666667 L22.1666667,7.16666667 C22.626904,7.16666667 23,7.53976271 23,8 C23,8.46023729 22.626904,8.83333333 22.1666667,8.83333333 L15.6932565,8.83333333 L18.5324245,11.6798838 C18.8336361,11.9818786 18.8336361,12.471509 18.5324245,12.7735039 C18.2312129,13.0754987 17.7428523,13.0754987 17.4416407,12.7735039 L13.2259087,8.54681004 C12.9246971,8.24481519 12.9246971,7.75518481 13.2259087,7.45318996 L17.4416407,3.22649613 C17.7428523,2.92450129 18.2312129,2.92450129 18.5324245,3.22649613 C18.8336361,3.52849098 18.8336361,4.01812137 18.5324245,4.32011622 L15.6932565,7.16666667 Z" id="icon" transform="translate(18.000000, 8.000000) rotate(-45.000000) translate(-18.000000, -8.000000) "></path>
                        </g>
                    </g>
                </g>
            </g>
        </g>
    </g>
</svg>